#!OML:ASF \\Waltz\H\Terrain\Patient Classification 1\Animal2\Wednesday\Animal2.ASF
:FULLY-SPECIFIED
:DEGREES
2192
root 12.5239 16.7408 -16.2566 3.0452 0.116011 -1.8247
lowerback 9.47921 -2.22795 2.98989
upperback -2.35097 -2.46323 1.88883
thorax -7.85989 -1.29203 0.713377
lowerneck 6.7018 6.58247 17.6192
upperneck -8.64911 8.89188 -23.887
head -1.58905 4.97317 -10.7298
rclavicle -1.31198e-014 7.15625e-015
rhumerus -31.6826 -4.84384 -71.1119
rradius 131.562
rwrist 11.3709
rhand -42.9226 22.1979
rfingers 7.12502
rthumb -15.7838 -7.17859
lclavicle -1.31198e-014 7.15625e-015
lhumerus -48.807 21.8602 49.6232
lradius 138.747
lwrist 52.5401
lhand -42.6863 27.8267
lfingers 7.12502
lthumb -15.5562 57.221
rfemur -27.0604 -7.1876 15.813
rtibia 49.7002
rfoot -27.8775 -1.09617
rtoes 19.7593
lfemur -27.2536 5.83506 -7.1381
ltibia 47.6384
lfoot -23.0996 0.517804
ltoes -33.9834
2193
root 12.5193 16.7224 -16.2802 3.34972 0.0466282 -2.0064
lowerback 9.66509 -2.20134 3.02819
upperback -2.35552 -2.40697 1.98264
thorax -7.96914 -1.26399 0.790213
lowerneck 6.34168 6.62848 17.8395
upperneck -8.68831 8.90751 -24.2009
head -1.50175 4.96894 -10.8614
rclavicle -2.63141e-014 2.82274e-014
rhumerus -31.6995 -4.81445 -71.0856
rradius 131.245
rwrist 11.6313
rhand -42.6607 22.0684
rfingers 7.12502
rthumb -15.5316 -7.32786
lclavicle -2.63141e-014 2.82274e-014
lhumerus -48.2293 21.3962 50.1745
lradius 138.646
lwrist 52.2645
lhand -42.9209 27.8232
lfingers 7.12502
lthumb -15.7822 57.1999
rfemur -27.7258 -7.31465 16.0949
rtibia 50.0518
rfoot -27.9704 -1.14644
rtoes 18.5437
lfemur -27.9232 5.92595 -6.93096
ltibia 48.1123
lfoot -23.1723 0.505507
ltoes -33.9167
2194
root 12.5152 16.7074 -16.3055 3.79845 0.0829055 -2.15952
lowerback 9.74553 -2.25007 3.02935
upperback -2.46664 -2.45471 2.11609
thorax -8.13042 -1.28465 0.946487
lowerneck 6.03909 6.71447 18.0944
upperneck -8.56988 9.0083 -24.6137
head -1.35341 5.01055 -11.0282
rclavicle -3.67255e-014 2.66371e-014
rhumerus -31.7476 -4.52356 -71.1483
rradius 130.688
rwrist 12.5311
rhand -43.0451 21.4552
rfingers 7.12502
rthumb -15.9018 -7.91196
lclavicle -3.67255e-014 2.66371e-014
lhumerus -48.0189 20.924 50.635
lradius 138.585
lwrist 51.8322
lhand -42.7131 28.4793
lfingers 7.12502
lthumb -15.5821 57.8716
rfemur -28.5383 -7.49923 16.3627
rtibia 50.3583
rfoot -27.8976 -1.21672
rtoes 18.0898
lfemur -28.7733 5.96691 -6.7811
ltibia 48.5276
lfoot -23.1364 0.619341
ltoes -34.5546
2195
root 12.5183 16.6948 -16.3266 4.29291 0.242458 -2.32952
lowerback 9.77793 -2.34584 3.14998
upperback -2.61649 -2.54846 2.27613
thorax -8.31094 -1.33293 1.07195
lowerneck 6.39973 6.85611 17.8169
upperneck -9.22297 9.13437 -24.623
head -1.58274 5.11281 -11.0206
rclavicle -3.62782e-015 1.90833e-014
rhumerus -31.8851 -4.33647 -71.186
rradius 130.293
rwrist 13.0305
rhand -43.2291 20.7772
rfingers 7.12502
rthumb -16.0789 -8.57573
lclavicle -3.62782e-015 1.90833e-014
lhumerus -47.957 20.5415 51.1249
lradius 138.45
lwrist 51.5208
lhand -42.1316 28.8174
lfingers 7.12502
lthumb -15.0219 58.2525
rfemur -29.3263 -7.90055 16.63
rtibia 50.62
rfoot -27.742 -1.08366
rtoes 17.8171
lfemur -29.6506 5.92932 -6.65209
ltibia 48.8805
lfoot -23.0773 0.59754
ltoes -34.5615
2196
root 12.5188 16.6813 -16.3455 4.69681 0.344541 -2.29469
lowerback 9.86272 -2.45644 3.04413
upperback -2.7196 -2.69453 2.38149
thorax -8.46278 -1.39614 1.2764
lowerneck 6.77161 7.00431 17.4006
upperneck -9.81504 9.2655 -24.5546
head -1.80968 5.21879 -10.961
rclavicle 1.80149e-014 -1.27222e-014
rhumerus -32.1116 -4.13766 -71.2222
rradius 130.191
rwrist 12.8872
rhand -42.5176 19.9709
rfingers 7.12502
rthumb -15.3937 -9.43597
lclavicle 1.80149e-014 -1.27222e-014
lhumerus -47.9879 20.3206 51.539
lradius 138.257
lwrist 51.3689
lhand -41.8651 28.4262
lfingers 7.12502
lthumb -14.7652 57.8803
rfemur -29.971 -8.20928 16.6573
rtibia 50.8589
rfoot -27.6041 -0.827561
rtoes 18.2525
lfemur -30.353 5.89133 -6.7362
ltibia 49.1439
lfoot -23.0822 0.467754
ltoes -34.1602
2197
root 12.513 16.6719 -16.3686 5.04965 0.381331 -2.29493
lowerback 10.0724 -2.54052 2.9164
upperback -2.83311 -2.80195 2.4853
thorax -8.69659 -1.43864 1.49273
lowerneck 6.73256 7.11225 17.1187
upperneck -9.84304 9.37639 -24.5287
head -1.80288 5.28056 -10.8945
rclavicle 2.7482e-014 4.77083e-015
rhumerus -32.3553 -3.66466 -71.3074
rradius 130.16
rwrist 12.5856
rhand -41.6315 18.6817
rfingers 7.12502
rthumb -14.5401 -10.7887
lclavicle 2.7482e-014 4.77083e-015
lhumerus -48.0605 19.9124 52.1273
lradius 138.251
lwrist 51.5488
lhand -42.2601 28.3004
lfingers 7.12502
lthumb -15.1458 57.7262
rfemur -30.5584 -8.31406 16.7497
rtibia 51.0697
rfoot -27.4864 -0.817832
rtoes 18.6061
lfemur -30.9887 5.87712 -6.7515
ltibia 49.3169
lfoot -22.9556 0.689873
ltoes -34.6158
2198
root 12.5079 16.6726 -16.3888 5.37843 0.42077 -2.31111
lowerback 10.1745 -2.47818 2.90049
upperback -2.83624 -2.71722 2.46563
thorax -8.75937 -1.39704 1.47123
lowerneck 6.5778 7.09154 17.1469
upperneck -9.98771 9.30968 -24.5159
head -1.82937 5.24007 -10.8953
rclavicle 1.0635e-014 -1.90833e-014
rhumerus -32.6115 -3.63797 -71.4808
rradius 130.045
rwrist 12.1239
rhand -40.9941 18.0246
rfingers 7.12502
rthumb -13.9259 -11.4891
lclavicle 1.0635e-014 -1.90833e-014
lhumerus -47.6927 19.092 53.0416
lradius 138.198
lwrist 51.7085
lhand -42.4168 29.2663
lfingers 7.12502
lthumb -15.2966 58.6806
rfemur -31.1059 -8.46078 16.8669
rtibia 51.2297
rfoot -27.4255 -0.933999
rtoes 17.9064
lfemur -31.5338 5.84126 -6.75364
ltibia 49.4183
lfoot -22.818 1.06928
ltoes -35.3115
2199
root 12.5056 16.6799 -16.4032 5.66109 0.443831 -2.29866
lowerback 10.0895 -2.41348 2.89937
upperback -2.67107 -2.64581 2.39401
thorax -8.53363 -1.36401 1.37155
lowerneck 6.54997 7.06674 17.3286
upperneck -10.4352 9.21926 -24.6429
head -1.94989 5.20139 -10.9956
rclavicle 1.78409e-014 -5.1684e-015
rhumerus -32.8459 -3.91476 -71.7199
rradius 129.814
rwrist 11.6835
rhand -40.1723 17.9262
rfingers 7.12502
rthumb -13.1339 -11.6402
lclavicle 1.78409e-014 -5.1684e-015
lhumerus -47.2364 18.5245 53.7415
lradius 137.899
lwrist 51.4129
lhand -41.6561 30.4853
lfingers 7.12502
lthumb -14.5639 59.954
rfemur -31.5609 -8.64586 16.9178
rtibia 51.3164
rfoot -27.3592 -0.75202
rtoes 18.037
lfemur -31.9267 5.83622 -6.80423
ltibia 49.4718
lfoot -22.7556 1.30912
ltoes -36.1248
2200
root 12.5054 16.6836 -16.4163 5.94962 0.513479 -2.40967
lowerback 10.0921 -2.43203 3.0109
upperback -2.62524 -2.65644 2.39988
thorax -8.49092 -1.37446 1.31556
lowerneck 6.73983 7.07908 17.5005
upperneck -10.7679 9.22388 -24.8077
head -2.0544 5.22209 -11.1117
rclavicle -6.71395e-014 4.25399e-014
rhumerus -33.2188 -4.05178 -71.9357
rradius 129.685
rwrist 11.4209
rhand -39.108 17.4454
rfingers 7.12502
rthumb -12.1078 -12.1842
lclavicle -6.71395e-014 4.25399e-014
lhumerus -47.2325 18.1183 54.2054
lradius 137.699
lwrist 51.7045
lhand -41.3454 31.2968
lfingers 7.12502
lthumb -14.2644 60.7869
rfemur -31.9602 -8.87615 17.0962
rtibia 51.3207
rfoot -27.2554 -0.384156
rtoes 18.8014
lfemur -32.3186 5.78862 -6.70329
ltibia 49.4992
lfoot -22.6867 1.20638
ltoes -36.0962
2201
root 12.5047 16.6835 -16.4297 6.25621 0.552943 -2.44369
lowerback 10.2243 -2.41903 3.01331
upperback -2.71273 -2.62865 2.4098
thorax -8.66216 -1.36103 1.33028
lowerneck 7.05243 7.04813 17.6871
upperneck -11.0033 9.20241 -24.9571
head -2.16018 5.23361 -11.2302
rclavicle -1.12313e-014 1.19271e-014
rhumerus -33.7597 -4.29279 -72.175
rradius 129.58
rwrist 11.1658
rhand -38.2158 17.2977
rfingers 7.12502
rthumb -11.2474 -12.3807
lclavicle -1.12313e-014 1.19271e-014
lhumerus -47.4573 17.5444 54.76
lradius 137.575
lwrist 52.4554
lhand -41.2418 31.7676
lfingers 7.12502
lthumb -14.1647 61.2647
rfemur -32.3755 -9.02308 17.2028
rtibia 51.2565
rfoot -27.1101 -0.482571
rtoes 18.1184
lfemur -32.7281 5.70521 -6.67795
ltibia 49.4823
lfoot -22.5421 1.13995
ltoes -35.6695
